********************************************************************************
************************************
Mars Needs Moms TS XViD - IMAGiNE
********************************************************************************
************************************

Ripper ...........: IMAGiNE IMDB Rating.......:7.8/10
Video Codec.......: XVID Release Date......:18/03/11
Audio Codec.......:MP3 Theatre Date......:11/03/10
Audio Bitrate.....:128 Runtime.......:1h 21mn
Subtitles.........:NIL Language..........:ENGLISH
Resolution...... 720 x 304 IMDb URL.......... http://www.imdb.com/title/tt1305591/


DETAILS:

Video
ID : 0
Format : MPEG-4 Visual
Format profile : Advanced Simple@L5
Format settings, BVOP : 2
Format settings, QPel : No
Format settings, GMC : No warppoints
Format settings, Matrix : Default (MPEG)
Muxing mode : Packed bitstream
Codec ID : XVID
Codec ID/Hint : XviD
Duration : 1h 21mn
Bit rate : 2 294 Kbps
Width : 720 pixels
Height : 304 pixels
Display aspect ratio : 2.35:1
Frame rate : 25.000 fps
Color space : YUV
Chroma subsampling : 4:2:0
Bit depth : 8 bits
Scan type : Progressive
Compression mode : Lossy
Bits/(Pixel*Frame) : 0.419
Stream size : 1.30 GiB (94%)
Writing library : XviD 61

Audio
ID : 1
Format : MPEG Audio
Format version : Version 1
Format profile : Layer 3
Codec ID : 55
Codec ID/Hint : MP3
Duration : 1h 21mn
Bit rate mode : Constant
Bit rate : 128 Kbps
Channel(s) : 2 channels
Sampling rate : 44.1 KHz
Compression mode : Lossy
Stream size : 74.5 MiB (5%)
Alignment : Split accross interleaves
Interleave, duration : 40 ms (1.00 video frame)
Interleave, preload duration : 500 ms


